<svg id="Calque_1" data-name="Calque 1" xmlns="http://www.w3.org/2000/svg" viewBox="0 0 99.21 93.54"><defs><style>.cls-1{fill:#fff;}</style></defs><title>Plan de travail 1</title><path class="cls-1" d="M51.85,13.43a.8.8,0,0,1-.86.73h-.92a.8.8,0,0,1-.86-.73L48.1,1A.8.8,0,0,1,49,.25h3.15A.8.8,0,0,1,53,1L51.85,13.43Z"/><path class="cls-1" d="M80.19,17.79a.8.8,0,0,1-1.11.21l-.8-.46a.8.8,0,0,1-.38-1.07L83.16,5.14a.8.8,0,0,1,1.11-.21L87,6.51a.8.8,0,0,1,.38,1.06L80.19,17.79Z"/><path class="cls-1" d="M20.88,17.79A.8.8,0,0,0,22,18l.8-.46a.81.81,0,0,0,.38-1.07L17.91,5.14a.81.81,0,0,0-1.11-.21L14.07,6.51a.8.8,0,0,0-.38,1.06l7.19,10.22Z"/><path class="cls-1" d="M74.89,29.84H25.7l-25,24h0l0,39.92H98.49V53.45Zm-25.48,62H2.73l0-37.92H49.41Zm47.08,0H73.79V66.56H65.54V91.79H51.4V53.86h0l23.47-21.2L96.49,54.28Z"/><rect class="cls-1" x="8.8" y="66.5" width="8.25" height="8.25"/><rect class="cls-1" x="81.85" y="66.5" width="8.25" height="8.25"/></svg>